<svg id="visual" viewBox="0 0 900 600" width="900" height="600" xmlns="http://www.w3.org/2000/svg"
     xmlns:xlink="http://www.w3.org/1999/xlink" version="1.1">
    <path d="M0 422L21.5 414.7C43 407.3 86 392.7 128.8 395.7C171.7 398.7 214.3 419.3 257.2 417.8C300 416.3 343 392.7 385.8 391.5C428.7 390.3 471.3 411.7 514.2 420C557 428.3 600 423.7 642.8 409.8C685.7 396 728.3 373 771.2 365.2C814 357.3 857 364.7 878.5 368.3L900 372L900 601L878.5 601C857 601 814 601 771.2 601C728.3 601 685.7 601 642.8 601C600 601 557 601 514.2 601C471.3 601 428.7 601 385.8 601C343 601 300 601 257.2 601C214.3 601 171.7 601 128.8 601C86 601 43 601 21.5 601L0 601Z"
          fill="#4facf7"></path>
    <path d="M0 437L21.5 437.3C43 437.7 86 438.3 128.8 433.7C171.7 429 214.3 419 257.2 421.7C300 424.3 343 439.7 385.8 443.3C428.7 447 471.3 439 514.2 437.7C557 436.3 600 441.7 642.8 444.3C685.7 447 728.3 447 771.2 441.8C814 436.7 857 426.3 878.5 421.2L900 416L900 601L878.5 601C857 601 814 601 771.2 601C728.3 601 685.7 601 642.8 601C600 601 557 601 514.2 601C471.3 601 428.7 601 385.8 601C343 601 300 601 257.2 601C214.3 601 171.7 601 128.8 601C86 601 43 601 21.5 601L0 601Z"
          fill="#3b9ffa"></path>
    <path d="M0 483L21.5 485.5C43 488 86 493 128.8 492.5C171.7 492 214.3 486 257.2 484C300 482 343 484 385.8 479.7C428.7 475.3 471.3 464.7 514.2 464.8C557 465 600 476 642.8 475.8C685.7 475.7 728.3 464.3 771.2 459.7C814 455 857 457 878.5 458L900 459L900 601L878.5 601C857 601 814 601 771.2 601C728.3 601 685.7 601 642.8 601C600 601 557 601 514.2 601C471.3 601 428.7 601 385.8 601C343 601 300 601 257.2 601C214.3 601 171.7 601 128.8 601C86 601 43 601 21.5 601L0 601Z"
          fill="#3390fb"></path>
    <path d="M0 535L21.5 531.7C43 528.3 86 521.7 128.8 514.3C171.7 507 214.3 499 257.2 497.8C300 496.7 343 502.3 385.8 506C428.7 509.7 471.3 511.3 514.2 516.2C557 521 600 529 642.8 528.5C685.7 528 728.3 519 771.2 518C814 517 857 524 878.5 527.5L900 531L900 601L878.5 601C857 601 814 601 771.2 601C728.3 601 685.7 601 642.8 601C600 601 557 601 514.2 601C471.3 601 428.7 601 385.8 601C343 601 300 601 257.2 601C214.3 601 171.7 601 128.8 601C86 601 43 601 21.5 601L0 601Z"
          fill="#3b80fa"></path>
    <path d="M0 529L21.5 535.3C43 541.7 86 554.3 128.8 555.5C171.7 556.7 214.3 546.3 257.2 542.2C300 538 343 540 385.8 543.3C428.7 546.7 471.3 551.3 514.2 553.5C557 555.7 600 555.3 642.8 553.7C685.7 552 728.3 549 771.2 548.2C814 547.3 857 548.7 878.5 549.3L900 550L900 601L878.5 601C857 601 814 601 771.2 601C728.3 601 685.7 601 642.8 601C600 601 557 601 514.2 601C471.3 601 428.7 601 385.8 601C343 601 300 601 257.2 601C214.3 601 171.7 601 128.8 601C86 601 43 601 21.5 601L0 601Z"
          fill="#4d6ef5"></path>
</svg>