<svg width="149" height="31" viewBox="0 0 149 31" fill="none" xmlns="http://www.w3.org/2000/svg">
<path d="M20.08 1.28C20.8907 1.28 21.552 1.54667 22.064 2.08C22.576 2.61333 22.832 3.30667 22.832 4.16V21.568C22.832 22.3787 22.5973 23.0187 22.128 23.488C21.6587 23.9573 21.04 24.192 20.272 24.192C19.5253 24.192 18.9067 23.9573 18.416 23.488C17.9467 23.0187 17.712 22.3787 17.712 21.568V12.16L14.064 18.88C13.7013 19.5627 13.3173 20.0533 12.912 20.352C12.5067 20.6293 12.0267 20.768 11.472 20.768C10.9173 20.768 10.4373 20.6293 10.032 20.352C9.62667 20.0533 9.24267 19.5627 8.88 18.88L5.264 12.352V21.568C5.264 22.3573 5.01867 22.9973 4.528 23.488C4.05867 23.9573 3.44 24.192 2.672 24.192C1.92533 24.192 1.30667 23.9573 0.816 23.488C0.346667 23.0187 0.112 22.3787 0.112 21.568V4.16C0.112 3.30667 0.368 2.61333 0.88 2.08C1.41333 1.54667 2.08533 1.28 2.896 1.28C3.472 1.28 3.99467 1.45067 4.464 1.792C4.93333 2.112 5.328 2.58133 5.648 3.2L11.536 14.272L17.392 3.2C18.0533 1.92 18.9493 1.28 20.08 1.28ZM29.4495 24.192C28.6388 24.192 27.9562 23.9787 27.4015 23.552C26.8682 23.104 26.6015 22.4427 26.6015 21.568V10.56C26.6015 9.68533 26.8682 9.03467 27.4015 8.608C27.9562 8.16 28.6388 7.936 29.4495 7.936C30.2602 7.936 30.9322 8.16 31.4655 8.608C32.0202 9.03467 32.2975 9.68533 32.2975 10.56V21.568C32.2975 22.4427 32.0202 23.104 31.4655 23.552C30.9322 23.9787 30.2602 24.192 29.4495 24.192ZM29.4495 5.696C28.4895 5.696 27.7215 5.45067 27.1455 4.96C26.5908 4.448 26.3135 3.776 26.3135 2.944C26.3135 2.112 26.5908 1.45067 27.1455 0.959999C27.7215 0.469332 28.4895 0.223999 29.4495 0.223999C30.3882 0.223999 31.1455 0.469332 31.7215 0.959999C32.2975 1.45067 32.5855 2.112 32.5855 2.944C32.5855 3.776 32.2975 4.448 31.7215 4.96C31.1668 5.45067 30.4095 5.696 29.4495 5.696ZM43.1855 24.256C40.6255 24.256 38.5988 23.5307 37.1055 22.08C35.6122 20.6293 34.8655 18.656 34.8655 16.16C34.8655 14.5173 35.2282 13.0667 35.9535 11.808C36.6788 10.5493 37.6922 9.57867 38.9935 8.896C40.3162 8.21333 41.8202 7.872 43.5055 7.872C44.4015 7.872 45.2975 7.98933 46.1935 8.224C47.0895 8.45867 47.8788 8.78933 48.5615 9.216C49.2228 9.62133 49.5535 10.24 49.5535 11.072C49.5535 11.7333 49.3935 12.2773 49.0735 12.704C48.7748 13.1093 48.3802 13.312 47.8895 13.312C47.5695 13.312 47.2602 13.2693 46.9615 13.184C46.6628 13.0773 46.3322 12.928 45.9695 12.736C45.5428 12.544 45.1802 12.4053 44.8815 12.32C44.5828 12.2133 44.2522 12.16 43.8895 12.16C41.7775 12.16 40.7215 13.4507 40.7215 16.032C40.7215 17.312 40.9882 18.2933 41.5215 18.976C42.0762 19.6373 42.8655 19.968 43.8895 19.968C44.2522 19.968 44.5828 19.9253 44.8815 19.84C45.2015 19.7333 45.5535 19.584 45.9375 19.392C46.3642 19.2 46.7055 19.0613 46.9615 18.976C47.2388 18.8693 47.5375 18.816 47.8575 18.816C48.3482 18.816 48.7428 19.0293 49.0415 19.456C49.3615 19.8613 49.5215 20.3947 49.5215 21.056C49.5215 21.4613 49.4362 21.8347 49.2655 22.176C49.0948 22.496 48.8602 22.7413 48.5615 22.912C47.0895 23.808 45.2975 24.256 43.1855 24.256ZM61.5855 7.936C62.3108 7.872 62.8868 8.04267 63.3135 8.448C63.7402 8.832 63.9535 9.408 63.9535 10.176C63.9535 11.0293 63.7508 11.648 63.3455 12.032C62.9615 12.416 62.2575 12.6613 61.2335 12.768L60.2735 12.864C59.2068 12.992 58.4388 13.3333 57.9695 13.888C57.5215 14.4213 57.2975 15.1573 57.2975 16.096V21.568C57.2975 22.4427 57.0202 23.104 56.4655 23.552C55.9322 23.9787 55.2602 24.192 54.4495 24.192C53.6388 24.192 52.9562 23.9787 52.4015 23.552C51.8682 23.104 51.6015 22.4427 51.6015 21.568V10.496C51.6015 9.68533 51.8682 9.056 52.4015 8.608C52.9562 8.16 53.6175 7.936 54.3855 7.936C55.1748 7.936 55.8042 8.14933 56.2735 8.576C56.7642 9.00267 57.0095 9.6 57.0095 10.368V10.976C57.3508 10.0373 57.9055 9.312 58.6735 8.8C59.4628 8.288 60.2842 8.01067 61.1375 7.968L61.5855 7.936ZM72.6313 24.256C70.9033 24.256 69.3779 23.9253 68.0553 23.264C66.7539 22.5813 65.7406 21.6213 65.0153 20.384C64.3113 19.1467 63.9593 17.696 63.9593 16.032C63.9593 14.368 64.3113 12.928 65.0153 11.712C65.7406 10.4747 66.7539 9.52533 68.0553 8.864C69.3566 8.20267 70.8819 7.872 72.6313 7.872C74.3806 7.872 75.9059 8.20267 77.2073 8.864C78.5086 9.52533 79.5113 10.4747 80.2153 11.712C80.9406 12.928 81.3033 14.368 81.3033 16.032C81.3033 17.696 80.9406 19.1467 80.2153 20.384C79.5113 21.6213 78.5086 22.5813 77.2073 23.264C75.9059 23.9253 74.3806 24.256 72.6313 24.256ZM72.6313 20C74.6579 20 75.6713 18.6773 75.6713 16.032C75.6713 13.3867 74.6579 12.064 72.6313 12.064C70.6046 12.064 69.5913 13.3867 69.5913 16.032C69.5913 18.6773 70.6046 20 72.6313 20ZM97.8668 7.936C98.7201 7.936 99.4028 8.18133 99.9148 8.672C100.427 9.14133 100.683 9.77067 100.683 10.56V22.08C100.683 24.6827 99.8934 26.656 98.3148 28C96.7574 29.344 94.4641 30.016 91.4348 30.016C90.2614 30.016 89.1521 29.9093 88.1068 29.696C87.0614 29.4827 86.1761 29.1733 85.4508 28.768C85.0668 28.5547 84.7574 28.2773 84.5228 27.936C84.3094 27.5947 84.2028 27.2107 84.2028 26.784C84.2028 26.1653 84.3521 25.664 84.6508 25.28C84.9708 24.896 85.3761 24.704 85.8668 24.704C86.2508 24.704 86.9441 24.864 87.9468 25.184C88.6081 25.3973 89.1948 25.5573 89.7068 25.664C90.2188 25.792 90.7414 25.856 91.2748 25.856C92.5761 25.856 93.5254 25.5787 94.1228 25.024C94.7414 24.4907 95.0508 23.6373 95.0508 22.464V21.248C94.5814 21.952 93.9094 22.5173 93.0348 22.944C92.1601 23.3493 91.2108 23.552 90.1868 23.552C88.8214 23.552 87.6054 23.232 86.5388 22.592C85.4721 21.952 84.6401 21.0453 84.0428 19.872C83.4454 18.6773 83.1468 17.3013 83.1468 15.744C83.1468 14.1867 83.4454 12.8107 84.0428 11.616C84.6401 10.4213 85.4721 9.504 86.5388 8.864C87.6054 8.20267 88.8214 7.872 90.1868 7.872C91.2321 7.872 92.1921 8.08533 93.0668 8.512C93.9414 8.93867 94.6134 9.52533 95.0828 10.272C95.1254 9.54667 95.3921 8.98133 95.8828 8.576C96.3948 8.14933 97.0561 7.936 97.8668 7.936ZM91.9148 19.296C92.9174 19.296 93.6961 18.9867 94.2508 18.368C94.8054 17.7493 95.0828 16.8747 95.0828 15.744C95.0828 14.6133 94.8054 13.728 94.2508 13.088C93.6961 12.448 92.9174 12.128 91.9148 12.128C90.9334 12.128 90.1654 12.448 89.6108 13.088C89.0561 13.7067 88.7788 14.592 88.7788 15.744C88.7788 16.8533 89.0561 17.728 89.6108 18.368C90.1868 18.9867 90.9548 19.296 91.9148 19.296ZM116.808 18.944C117.298 18.944 117.693 19.136 117.992 19.52C118.312 19.904 118.472 20.4053 118.472 21.024C118.472 21.8773 118.056 22.528 117.224 22.976C116.498 23.3387 115.634 23.648 114.632 23.904C113.65 24.1387 112.744 24.256 111.912 24.256C110.162 24.256 108.637 23.9253 107.336 23.264C106.034 22.6027 105.032 21.6533 104.328 20.416C103.624 19.1787 103.272 17.728 103.272 16.064C103.272 14.4853 103.602 13.0773 104.264 11.84C104.946 10.5813 105.885 9.61067 107.08 8.928C108.296 8.224 109.661 7.872 111.176 7.872C112.648 7.872 113.938 8.192 115.048 8.832C116.157 9.472 117.01 10.3787 117.608 11.552C118.226 12.7253 118.536 14.1013 118.536 15.68C118.536 16.1707 118.418 16.5547 118.184 16.832C117.97 17.088 117.65 17.216 117.224 17.216H108.776C108.925 18.24 109.256 18.976 109.768 19.424C110.28 19.872 111.037 20.096 112.04 20.096C112.573 20.096 113.064 20.0427 113.512 19.936C113.96 19.808 114.461 19.6373 115.016 19.424C115.336 19.296 115.645 19.1893 115.944 19.104C116.264 18.9973 116.552 18.944 116.808 18.944ZM111.336 11.712C110.589 11.712 109.992 11.9573 109.544 12.448C109.096 12.9173 108.829 13.6107 108.744 14.528H113.768C113.64 12.6507 112.829 11.712 111.336 11.712ZM127.341 24.256C125.911 24.256 124.706 24.1493 123.725 23.936C122.743 23.7227 121.879 23.3813 121.133 22.912C120.834 22.7627 120.599 22.5067 120.429 22.144C120.258 21.7813 120.173 21.376 120.173 20.928C120.173 20.352 120.322 19.8827 120.621 19.52C120.941 19.136 121.335 18.944 121.805 18.944C122.125 18.944 122.423 18.9867 122.701 19.072C122.978 19.136 123.319 19.2533 123.725 19.424C124.407 19.6587 125.005 19.84 125.517 19.968C126.05 20.096 126.722 20.16 127.533 20.16C128.109 20.16 128.557 20.0853 128.877 19.936C129.218 19.7653 129.389 19.5307 129.389 19.232C129.389 18.9973 129.303 18.816 129.133 18.688C128.983 18.56 128.685 18.4427 128.237 18.336C127.789 18.208 127.031 18.0373 125.965 17.824C124.066 17.4613 122.69 16.9173 121.837 16.192C121.005 15.4453 120.589 14.4 120.589 13.056C120.589 12.0747 120.887 11.1893 121.485 10.4C122.103 9.61067 122.946 8.992 124.013 8.544C125.079 8.096 126.274 7.872 127.597 7.872C128.557 7.872 129.485 7.98933 130.381 8.224C131.298 8.45867 132.109 8.78933 132.813 9.216C133.474 9.6 133.805 10.2187 133.805 11.072C133.805 11.6693 133.645 12.1707 133.325 12.576C133.005 12.9813 132.61 13.184 132.141 13.184C131.586 13.184 130.925 13.0027 130.157 12.64C129.645 12.4053 129.186 12.2347 128.781 12.128C128.397 12 127.938 11.936 127.405 11.936C126.871 11.936 126.455 12.0213 126.157 12.192C125.858 12.3413 125.709 12.5653 125.709 12.864C125.709 13.2053 125.911 13.472 126.317 13.664C126.743 13.856 127.575 14.0693 128.813 14.304C130.882 14.6667 132.343 15.2213 133.197 15.968C134.05 16.6933 134.477 17.7493 134.477 19.136C134.477 20.6933 133.826 21.9413 132.525 22.88C131.245 23.7973 129.517 24.256 127.341 24.256ZM145.976 20.128C147.405 20.2133 148.12 20.8533 148.12 22.048C148.12 22.7947 147.832 23.3493 147.256 23.712C146.68 24.0747 145.859 24.224 144.792 24.16L143.896 24.096C141.976 23.9467 140.515 23.3707 139.512 22.368C138.531 21.344 138.04 19.9253 138.04 18.112V12.448H137.112C135.405 12.448 134.552 11.744 134.552 10.336C134.552 8.94933 135.405 8.256 137.112 8.256H138.04V6.176C138.04 5.36533 138.296 4.72533 138.808 4.256C139.32 3.76533 140.013 3.52 140.888 3.52C141.763 3.52 142.456 3.76533 142.968 4.256C143.48 4.72533 143.736 5.36533 143.736 6.176V8.256H145.496C147.203 8.256 148.056 8.94933 148.056 10.336C148.056 11.744 147.203 12.448 145.496 12.448H143.736V18.592C143.736 18.9973 143.853 19.3387 144.088 19.616C144.344 19.8933 144.664 20.0427 145.048 20.064L145.976 20.128Z" fill="#4C6EF5"/>
</svg>
