<svg style="position: absolute; width: 0; height: 0; overflow: hidden;" version="1.1" xmlns="http://www.w3.org/2000/svg" xmlns:xlink="http://www.w3.org/1999/xlink">
    <defs>
        <symbol id="icon-user-plus" viewBox="0 0 19.961 15.969">
            <path d="M19.462,6.487h-2v-2a.5.5,0,0,0-.5-.5h-1a.5.5,0,0,0-.5.5v2h-2a.5.5,0,0,0-.5.5v1a.5.5,0,0,0,.5.5h2v2a.5.5,0,0,0,.5.5h1a.5.5,0,0,0,.5-.5v-2h2a.5.5,0,0,0,.5-.5v-1A.5.5,0,0,0,19.462,6.487ZM6.986,7.984A3.992,3.992,0,1,0,2.994,3.992,3.992,3.992,0,0,0,6.986,7.984Zm2.795,1H9.26a5.429,5.429,0,0,1-4.547,0H4.192A4.193,4.193,0,0,0,0,13.174v1.3a1.5,1.5,0,0,0,1.5,1.5H12.476a1.5,1.5,0,0,0,1.5-1.5v-1.3A4.193,4.193,0,0,0,9.781,8.982Z"/>
        </symbol>
        <symbol id="icon-eye" viewBox="0 0 23.667 15.954">
            <path d="M14.083,7.383A12.725,12.725,0,0,0,2.25,15.36a12.766,12.766,0,0,0,23.667,0A12.725,12.725,0,0,0,14.083,7.383Zm0,13.3a5.32,5.32,0,1,1,5.378-5.32A5.364,5.364,0,0,1,14.083,20.679Zm0-8.511a3.191,3.191,0,1,0,3.228,3.191A3.22,3.22,0,0,0,14.083,12.169Z" transform="translate(-2.25 -7.383)"/>
        </symbol>
        <symbol id="icon-eye-slash" viewBox="0 0 18.593 15.933">
            <path d="M11.548,7.853a4.215,4.215,0,0,1,4.228,4.195,4.035,4.035,0,0,1-.3,1.535l2.469,2.448a9.919,9.919,0,0,0,2.9-3.983A10.013,10.013,0,0,0,8.175,6.342L10,8.155A4.181,4.181,0,0,1,11.548,7.853ZM3.1,5.566,5.026,7.479l.39.386A9.872,9.872,0,0,0,2.25,12.048a10.028,10.028,0,0,0,13,5.585l.357.353,2.477,2.448,1.075-1.066L4.167,4.5ZM7.769,10.2,9.08,11.5a2.377,2.377,0,0,0-.066.544,2.523,2.523,0,0,0,2.535,2.514,2.385,2.385,0,0,0,.548-.066l1.311,1.3A4.206,4.206,0,0,1,7.32,12.039,4.145,4.145,0,0,1,7.769,10.2Zm3.643-.651,2.664,2.643.017-.133a2.523,2.523,0,0,0-2.535-2.514Z" transform="translate(-2.25 -4.5)"/>
        </symbol>
        <symbol id="icon-arrow-left" viewBox="0 0 16.47 16.053">
            <path d="M9.464,17.625l-.816.816a.879.879,0,0,1-1.246,0L.256,11.3a.879.879,0,0,1,0-1.246L7.4,2.906a.879.879,0,0,1,1.246,0l.816.816a.883.883,0,0,1-.015,1.261L5.02,9.2H15.585a.88.88,0,0,1,.882.882v1.176a.88.88,0,0,1-.882.882H5.02l4.43,4.22A.877.877,0,0,1,9.464,17.625Z" transform="translate(0.004 -2.647)" />
        </symbol>
        <symbol id="icon-unlock" viewBox="0 0 14 16">
            <path d="M12.5,8H4.75V4.778a2.25,2.25,0,1,1,4.5-.028v.5A.748.748,0,0,0,10,6h1a.748.748,0,0,0,.75-.75v-.5a4.75,4.75,0,1,0-9.5.047V8H1.5A1.5,1.5,0,0,0,0,9.5v5A1.5,1.5,0,0,0,1.5,16h11A1.5,1.5,0,0,0,14,14.5v-5A1.5,1.5,0,0,0,12.5,8Z" transform="translate(0 0)" />
        </symbol>
        <symbol id="icon-send" viewBox="0 0 16 15.998">
            <path d="M20,4.539,4.7,11.206a.351.351,0,0,0,.013.638l4.138,2.338a.667.667,0,0,0,.763-.075l8.159-7.034c.054-.046.183-.133.233-.083s-.029.179-.075.233l-7.059,7.951a.665.665,0,0,0-.067.8l2.7,4.338a.352.352,0,0,0,.633-.008L20.469,5A.351.351,0,0,0,20,4.539Z" transform="translate(-4.503 -4.503)" />
        </symbol>
    </defs>
</svg>