<svg style="position: absolute; width: 0; height: 0; overflow: hidden;" version="1.1" xmlns="http://www.w3.org/2000/svg" xmlns:xlink="http://www.w3.org/1999/xlink">
    <defs>
        <symbol id="icon-user-plus" viewBox="0 0 19.961 15.969">
            <path d="M19.462,6.487h-2v-2a.5.5,0,0,0-.5-.5h-1a.5.5,0,0,0-.5.5v2h-2a.5.5,0,0,0-.5.5v1a.5.5,0,0,0,.5.5h2v2a.5.5,0,0,0,.5.5h1a.5.5,0,0,0,.5-.5v-2h2a.5.5,0,0,0,.5-.5v-1A.5.5,0,0,0,19.462,6.487ZM6.986,7.984A3.992,3.992,0,1,0,2.994,3.992,3.992,3.992,0,0,0,6.986,7.984Zm2.795,1H9.26a5.429,5.429,0,0,1-4.547,0H4.192A4.193,4.193,0,0,0,0,13.174v1.3a1.5,1.5,0,0,0,1.5,1.5H12.476a1.5,1.5,0,0,0,1.5-1.5v-1.3A4.193,4.193,0,0,0,9.781,8.982Z"/>
        </symbol>
        <symbol id="icon-eye" viewBox="0 0 23.667 15.954">
            <path d="M14.083,7.383A12.725,12.725,0,0,0,2.25,15.36a12.766,12.766,0,0,0,23.667,0A12.725,12.725,0,0,0,14.083,7.383Zm0,13.3a5.32,5.32,0,1,1,5.378-5.32A5.364,5.364,0,0,1,14.083,20.679Zm0-8.511a3.191,3.191,0,1,0,3.228,3.191A3.22,3.22,0,0,0,14.083,12.169Z" transform="translate(-2.25 -7.383)"/>
        </symbol>
        <symbol id="icon-eye-slash" viewBox="0 0 18.593 15.933">
            <path d="M11.548,7.853a4.215,4.215,0,0,1,4.228,4.195,4.035,4.035,0,0,1-.3,1.535l2.469,2.448a9.919,9.919,0,0,0,2.9-3.983A10.013,10.013,0,0,0,8.175,6.342L10,8.155A4.181,4.181,0,0,1,11.548,7.853ZM3.1,5.566,5.026,7.479l.39.386A9.872,9.872,0,0,0,2.25,12.048a10.028,10.028,0,0,0,13,5.585l.357.353,2.477,2.448,1.075-1.066L4.167,4.5ZM7.769,10.2,9.08,11.5a2.377,2.377,0,0,0-.066.544,2.523,2.523,0,0,0,2.535,2.514,2.385,2.385,0,0,0,.548-.066l1.311,1.3A4.206,4.206,0,0,1,7.32,12.039,4.145,4.145,0,0,1,7.769,10.2Zm3.643-.651,2.664,2.643.017-.133a2.523,2.523,0,0,0-2.535-2.514Z" transform="translate(-2.25 -4.5)"/>
        </symbol>
        <symbol id="icon-arrow-left" viewBox="0 0 16.47 16.053">
            <path fill="currentColor" d="M9.464,17.625l-.816.816a.879.879,0,0,1-1.246,0L.256,11.3a.879.879,0,0,1,0-1.246L7.4,2.906a.879.879,0,0,1,1.246,0l.816.816a.883.883,0,0,1-.015,1.261L5.02,9.2H15.585a.88.88,0,0,1,.882.882v1.176a.88.88,0,0,1-.882.882H5.02l4.43,4.22A.877.877,0,0,1,9.464,17.625Z" transform="translate(0.004 -2.647)" />
        </symbol>
        <symbol id="icon-unlock" viewBox="0 0 14 16">
            <path d="M12.5,8H4.75V4.778a2.25,2.25,0,1,1,4.5-.028v.5A.748.748,0,0,0,10,6h1a.748.748,0,0,0,.75-.75v-.5a4.75,4.75,0,1,0-9.5.047V8H1.5A1.5,1.5,0,0,0,0,9.5v5A1.5,1.5,0,0,0,1.5,16h11A1.5,1.5,0,0,0,14,14.5v-5A1.5,1.5,0,0,0,12.5,8Z" transform="translate(0 0)" />
        </symbol>
        <symbol id="icon-send" viewBox="0 0 16 15.998">
            <path d="M20,4.539,4.7,11.206a.351.351,0,0,0,.013.638l4.138,2.338a.667.667,0,0,0,.763-.075l8.159-7.034c.054-.046.183-.133.233-.083s-.029.179-.075.233l-7.059,7.951a.665.665,0,0,0-.067.8l2.7,4.338a.352.352,0,0,0,.633-.008L20.469,5A.351.351,0,0,0,20,4.539Z" transform="translate(-4.503 -4.503)" />
        </symbol>
        <symbol id="icon-check" viewBox="0 0 8.258 6.158">
            <path d="M2.8,10.614.121,7.931a.413.413,0,0,1,0-.584L.7,6.763a.413.413,0,0,1,.584,0L3.1,8.571,6.969,4.7a.413.413,0,0,1,.584,0l.584.584a.413.413,0,0,1,0,.584L3.389,10.614A.413.413,0,0,1,2.8,10.614Z" transform="translate(0 -4.577)" />
        </symbol>
        <symbol id="icon-exclamation" viewBox="0 0 1.916 6.13">
            <path d="M3.041,5.172a.958.958,0,1,1-.958-.958A.959.959,0,0,1,3.041,5.172ZM1.236.3,1.4,3.558a.287.287,0,0,0,.287.273H2.48a.287.287,0,0,0,.287-.273L2.93.3A.287.287,0,0,0,2.643,0H1.523A.287.287,0,0,0,1.236.3Z" transform="translate(-1.125)"/>
        </symbol>
        <symbol id="icon-info" viewBox="0 0 2.334 6.225">
            <path d="M.243,5.158H.486V3.4H.243A.243.243,0,0,1,0,3.158V2.578a.243.243,0,0,1,.243-.243H1.6a.243.243,0,0,1,.243.243v2.58h.243a.243.243,0,0,1,.243.243v.581a.243.243,0,0,1-.243.243H.243A.243.243,0,0,1,0,5.982V5.4A.243.243,0,0,1,.243,5.158ZM1.167,0a.875.875,0,1,0,.875.875A.875.875,0,0,0,1.167,0Z"/>
        </symbol>
        <symbol id="icon-close" viewBox="0 0 6 6">
              <path d="M15,14.289l2.143-2.144a.5.5,0,0,0-.71-.71l-2.143,2.144-2.143-2.144a.5.5,0,1,0-.71.71l2.143,2.144-2.143,2.144a.5.5,0,0,0,.71.71L14.286,15l2.143,2.144a.5.5,0,0,0,.71-.71Z" transform="translate(-11.285 -11.289)"/>
        </symbol>
        <symbol id="icon-overview" viewBox="0 0 21 20">
            <path fill="currentColor" d="M0.75 4.1875H20.25C20.6642 4.1875 21 3.85173 21 3.4375V1.5625C21 1.14827 20.6642 0.8125 20.25 0.8125H0.75C0.335766 0.8125 0 1.14827 0 1.5625V3.4375C0 3.85173 0.335766 4.1875 0.75 4.1875ZM0.75 11.6875H20.25C20.6642 11.6875 21 11.3517 21 10.9375V9.0625C21 8.64827 20.6642 8.3125 20.25 8.3125H0.75C0.335766 8.3125 0 8.64827 0 9.0625V10.9375C0 11.3517 0.335766 11.6875 0.75 11.6875ZM0.75 19.1875H20.25C20.6642 19.1875 21 18.8517 21 18.4375V16.5625C21 16.1483 20.6642 15.8125 20.25 15.8125H0.75C0.335766 15.8125 0 16.1483 0 16.5625V18.4375C0 18.8517 0.335766 19.1875 0.75 19.1875Z"/>
        </symbol>
        <symbol id="icon-users" viewBox="0 0 24 17">
            <path fill="currentColor" d="M3.6 7.3125C4.92375 7.3125 6 6.24746 6 4.9375C6 3.62754 4.92375 2.5625 3.6 2.5625C2.27625 2.5625 1.2 3.62754 1.2 4.9375C1.2 6.24746 2.27625 7.3125 3.6 7.3125ZM20.4 7.3125C21.7238 7.3125 22.8 6.24746 22.8 4.9375C22.8 3.62754 21.7238 2.5625 20.4 2.5625C19.0763 2.5625 18 3.62754 18 4.9375C18 6.24746 19.0763 7.3125 20.4 7.3125ZM21.6 8.5H19.2C18.54 8.5 17.9438 8.76348 17.5088 9.19023C19.02 10.0104 20.0925 11.491 20.325 13.25H22.8C23.4638 13.25 24 12.7193 24 12.0625V10.875C24 9.56504 22.9237 8.5 21.6 8.5ZM12 8.5C14.3212 8.5 16.2 6.64082 16.2 4.34375C16.2 2.04668 14.3212 0.1875 12 0.1875C9.67875 0.1875 7.8 2.04668 7.8 4.34375C7.8 6.64082 9.67875 8.5 12 8.5ZM14.88 9.6875H14.5688C13.7888 10.0586 12.9225 10.2812 12 10.2812C11.0775 10.2812 10.215 10.0586 9.43125 9.6875H9.12C6.735 9.6875 4.8 11.6023 4.8 13.9625V15.0312C4.8 16.0146 5.60625 16.8125 6.6 16.8125H17.4C18.3938 16.8125 19.2 16.0146 19.2 15.0312V13.9625C19.2 11.6023 17.265 9.6875 14.88 9.6875ZM6.49125 9.19023C6.05625 8.76348 5.46 8.5 4.8 8.5H2.4C1.07625 8.5 0 9.56504 0 10.875V12.0625C0 12.7193 0.53625 13.25 1.2 13.25H3.67125C3.9075 11.491 4.98 10.0104 6.49125 9.19023Z"/>
        </symbol>
        <symbol id="icon-invoice" viewBox="0 0 14 19">
            <path fill="currentColor" d="M13.7448 3.89648L10.1755 0.259766C10.0115 0.0927734 9.78906 0 9.55573 0H9.33333V4.75H14V4.52363C14 4.28984 13.9089 4.06348 13.7448 3.89648ZM8.16667 5.04688V0H0.875C0.390104 0 0 0.39707 0 0.890625V18.1094C0 18.6029 0.390104 19 0.875 19H13.125C13.6099 19 14 18.6029 14 18.1094V5.9375H9.04167C8.56042 5.9375 8.16667 5.53672 8.16667 5.04688ZM2.33333 2.67188C2.33333 2.50785 2.46385 2.375 2.625 2.375H5.54167C5.70281 2.375 5.83333 2.50785 5.83333 2.67188V3.26562C5.83333 3.42965 5.70281 3.5625 5.54167 3.5625H2.625C2.46385 3.5625 2.33333 3.42965 2.33333 3.26562V2.67188ZM2.33333 5.64062V5.04688C2.33333 4.88285 2.46385 4.75 2.625 4.75H5.54167C5.70281 4.75 5.83333 4.88285 5.83333 5.04688V5.64062C5.83333 5.80465 5.70281 5.9375 5.54167 5.9375H2.625C2.46385 5.9375 2.33333 5.80465 2.33333 5.64062ZM7.58333 15.433V16.3281C7.58333 16.4921 7.45281 16.625 7.29167 16.625H6.70833C6.54719 16.625 6.41667 16.4921 6.41667 16.3281V15.4267C6.00505 15.4052 5.60474 15.259 5.27297 15.0055C5.13078 14.8968 5.12349 14.6801 5.25219 14.555L5.68057 14.139C5.78156 14.0411 5.93177 14.0366 6.0499 14.112C6.19099 14.2018 6.35104 14.25 6.51729 14.25H7.54213C7.77911 14.25 7.97234 14.0303 7.97234 13.7605C7.97234 13.5397 7.84073 13.3453 7.6526 13.2881L6.01198 12.7871C5.33422 12.5801 4.86063 11.918 4.86063 11.177C4.86063 10.2671 5.55516 9.52783 6.4163 9.50445V8.60938C6.4163 8.44535 6.54682 8.3125 6.70797 8.3125H7.2913C7.45245 8.3125 7.58297 8.44535 7.58297 8.60938V9.51076C7.99458 9.53229 8.3949 9.67813 8.72667 9.93195C8.86885 10.0407 8.87615 10.2574 8.74745 10.3825L8.31906 10.7985C8.21807 10.8964 8.06786 10.9009 7.94974 10.8255C7.80865 10.7354 7.64859 10.6875 7.48234 10.6875H6.4575C6.22052 10.6875 6.02729 10.9072 6.02729 11.177C6.02729 11.3978 6.15891 11.5922 6.34703 11.6494L7.98766 12.1504C8.66542 12.3574 9.13901 13.0195 9.13901 13.7605C9.13901 14.6708 8.44448 15.4097 7.58333 15.433Z"/>
        </symbol>
        <symbol id="icon-devis" viewBox="0 0 14 19">
            <path fill="currentColor" d="M10.5 9.5H3.5V11.875H10.5V9.5ZM13.7448 3.89648L10.1755 0.259766C10.0115 0.0927734 9.78906 0 9.55573 0H9.33333V4.75H14V4.52363C14 4.28984 13.9089 4.06348 13.7448 3.89648ZM8.16667 5.04688V0H0.875C0.390104 0 0 0.39707 0 0.890625V18.1094C0 18.6029 0.390104 19 0.875 19H13.125C13.6099 19 14 18.6029 14 18.1094V5.9375H9.04167C8.56042 5.9375 8.16667 5.53672 8.16667 5.04688ZM2.33333 2.67188C2.33333 2.50785 2.46385 2.375 2.625 2.375H5.54167C5.70281 2.375 5.83333 2.50785 5.83333 2.67188V3.26562C5.83333 3.42965 5.70281 3.5625 5.54167 3.5625H2.625C2.46385 3.5625 2.33333 3.42965 2.33333 3.26562V2.67188ZM2.33333 5.04688C2.33333 4.88285 2.46385 4.75 2.625 4.75H5.54167C5.70281 4.75 5.83333 4.88285 5.83333 5.04688V5.64062C5.83333 5.80465 5.70281 5.9375 5.54167 5.9375H2.625C2.46385 5.9375 2.33333 5.80465 2.33333 5.64062V5.04688ZM11.6667 16.3281C11.6667 16.4921 11.5361 16.625 11.375 16.625H8.45833C8.29719 16.625 8.16667 16.4921 8.16667 16.3281V15.7344C8.16667 15.5704 8.29719 15.4375 8.45833 15.4375H11.375C11.5361 15.4375 11.6667 15.5704 11.6667 15.7344V16.3281ZM11.6667 8.90625V12.4688C11.6667 12.7968 11.4056 13.0625 11.0833 13.0625H2.91667C2.59437 13.0625 2.33333 12.7968 2.33333 12.4688V8.90625C2.33333 8.5782 2.59437 8.3125 2.91667 8.3125H11.0833C11.4056 8.3125 11.6667 8.5782 11.6667 8.90625Z" />
        </symbol>
        <symbol id="icon-github" viewBox="0 0 16.337 15.928">
            <path d="M5.464,13.388c0,.066-.076.119-.171.119s-.184-.043-.184-.119.076-.119.171-.119S5.464,13.312,5.464,13.388ZM4.44,13.24c-.023.066.043.142.142.161a.154.154,0,0,0,.2-.066c.02-.066-.043-.142-.142-.171A.169.169,0,0,0,4.44,13.24ZM5.9,13.184c-.1.023-.161.086-.152.161s.1.109.194.086.161-.086.152-.152S5.991,13.174,5.9,13.184ZM8.063.563A7.9,7.9,0,0,0,0,8.6a8.258,8.258,0,0,0,5.583,7.878c.422.076.57-.184.57-.4s-.01-1.331-.01-2.022c0,0-2.306.494-2.79-.982,0,0-.375-.958-.916-1.205,0,0-.754-.517.053-.507a1.739,1.739,0,0,1,1.271.85,1.741,1.741,0,0,0,2.4.688,1.831,1.831,0,0,1,.527-1.11c-1.841-.2-3.7-.471-3.7-3.639a2.5,2.5,0,0,1,.777-1.94,3.112,3.112,0,0,1,.086-2.236c.688-.214,2.273.889,2.273.889a7.781,7.781,0,0,1,4.137,0s1.584-1.107,2.273-.889a3.11,3.11,0,0,1,.086,2.236,2.56,2.56,0,0,1,.85,1.94c0,3.178-1.94,3.432-3.781,3.639a1.948,1.948,0,0,1,.56,1.528c0,1.11-.01,2.483-.01,2.753,0,.214.152.474.57.4A8.181,8.181,0,0,0,16.337,8.6,8.076,8.076,0,0,0,8.063.563ZM3.2,11.922c-.043.033-.033.109.023.171s.128.076.171.033.033-.109-.023-.171S3.244,11.88,3.2,11.922Zm-.356-.267c-.023.043.01.1.076.128a.1.1,0,0,0,.142-.023c.023-.043-.01-.1-.076-.128S2.869,11.623,2.846,11.656Zm1.067,1.173c-.053.043-.033.142.043.2s.171.086.214.033.023-.142-.043-.2S3.956,12.775,3.913,12.828Zm-.375-.484c-.053.033-.053.119,0,.194s.142.109.184.076a.15.15,0,0,0,0-.2C3.676,12.334,3.59,12.3,3.537,12.344Z" transform="translate(0 -0.563)" />
        </symbol>
        <symbol id="icon-logout" viewBox="0 0 18 16">
            <path fill="currentColor" fill-rule="evenodd" clip-rule="evenodd" d="M1.12502 0C0.826642 0 0.54049 0.120408 0.329509 0.334735C0.118528 0.549062 0 0.839753 0 1.14286V14.8571C0 15.1602 0.118528 15.4509 0.329509 15.6653C0.54049 15.8796 0.826642 16 1.12502 16C1.42339 16 1.70954 15.8796 1.92052 15.6653C2.1315 15.4509 2.25003 15.1602 2.25003 14.8571V1.14286C2.25003 0.839753 2.1315 0.549062 1.92052 0.334735C1.70954 0.120408 1.42339 0 1.12502 0V0ZM12.7048 10.6206C12.4999 10.8361 12.3865 11.1248 12.389 11.4245C12.3916 11.7241 12.5099 12.0108 12.7185 12.2227C12.9271 12.4345 13.2093 12.5547 13.5042 12.5573C13.7992 12.5599 14.0834 12.4448 14.2956 12.2366L17.6706 8.808C17.8815 8.59368 18 8.30305 18 8C18 7.69696 17.8815 7.40632 17.6706 7.192L14.2956 3.76343C14.1918 3.65427 14.0676 3.56721 13.9304 3.50731C13.7931 3.44742 13.6455 3.41589 13.4961 3.41457C13.3468 3.41325 13.1986 3.44217 13.0604 3.49963C12.9221 3.5571 12.7965 3.64196 12.6909 3.74926C12.5852 3.85657 12.5017 3.98417 12.4451 4.12462C12.3886 4.26508 12.3601 4.41557 12.3614 4.56732C12.3627 4.71906 12.3937 4.86903 12.4527 5.00846C12.5116 5.1479 12.5973 5.274 12.7048 5.37943L14.1594 6.85714H5.62508C5.3267 6.85714 5.04055 6.97755 4.82957 7.19188C4.61859 7.40621 4.50006 7.6969 4.50006 8C4.50006 8.3031 4.61859 8.59379 4.82957 8.80812C5.04055 9.02245 5.3267 9.14286 5.62508 9.14286H14.1594L12.7048 10.6206V10.6206Z" />
        </symbol>
        <symbol id="icon-bell" viewBox="0 0 14 16">
            <path d="M7,16a2,2,0,0,0,2-2H5A2,2,0,0,0,7,16Zm6.731-4.678C13.127,10.673,12,9.7,12,6.5A4.935,4.935,0,0,0,8,1.651V1A1,1,0,1,0,6,1v.651A4.935,4.935,0,0,0,2,6.5C2,9.7.873,10.673.269,11.322A.976.976,0,0,0,0,12a1,1,0,0,0,1,1H13a1,1,0,0,0,1-1,.976.976,0,0,0-.269-.678Z" />
        </symbol>
        <symbol id="icon-settings" viewBox="0 0 18 19">
            <path fill="currentColor" d="M8.69308 6.67632C8.0799 6.67632 7.50568 6.91421 7.07091 7.34898C6.6382 7.78374 6.39826 8.35796 6.39826 8.97114C6.39826 9.58433 6.6382 10.1585 7.07091 10.5933C7.50568 11.026 8.0799 11.266 8.69308 11.266C9.30626 11.266 9.88048 11.026 10.3152 10.5933C10.748 10.1585 10.9879 9.58433 10.9879 8.97114C10.9879 8.35796 10.748 7.78374 10.3152 7.34898C10.1029 7.13499 9.85014 6.96533 9.57167 6.84986C9.29319 6.73439 8.99455 6.6754 8.69308 6.67632ZM17.1485 11.5059L15.8072 10.3595C15.8708 9.96987 15.9036 9.57202 15.9036 9.17622C15.9036 8.78042 15.8708 8.38052 15.8072 7.99292L17.1485 6.84653C17.2498 6.7598 17.3223 6.64428 17.3564 6.51533C17.3904 6.38638 17.3844 6.25012 17.3392 6.12466L17.3207 6.07134C16.9516 5.03916 16.3985 4.0824 15.6883 3.24741L15.6514 3.20435C15.5651 3.10294 15.4502 3.03004 15.3217 2.99526C15.1932 2.96049 15.0572 2.96546 14.9316 3.00952L13.2663 3.6022C12.6511 3.09771 11.9661 2.69985 11.2237 2.423L10.9018 0.681885C10.8775 0.550722 10.8139 0.430054 10.7193 0.335913C10.6248 0.241773 10.5039 0.178616 10.3727 0.154834L10.3173 0.14458C9.25089 -0.0481934 8.12706 -0.0481934 7.06066 0.14458L7.00529 0.154834C6.87403 0.178616 6.75312 0.241773 6.65861 0.335913C6.5641 0.430054 6.50048 0.550722 6.47618 0.681885L6.15216 2.4312C5.41681 2.71026 4.73178 3.10715 4.12394 3.6063L2.4464 3.00952C2.32082 2.96511 2.1847 2.95996 2.05613 2.99476C1.92755 3.02956 1.81261 3.10266 1.72658 3.20435L1.68966 3.24741C0.980691 4.08329 0.427757 5.03981 0.0572396 6.07134L0.0387825 6.12466C-0.0535027 6.38101 0.0223763 6.66812 0.229505 6.84653L1.58712 8.00523C1.52355 8.39077 1.49279 8.78452 1.49279 9.17417C1.49279 9.56792 1.52355 9.96167 1.58712 10.3431L0.233607 11.5018C0.132289 11.5885 0.0597752 11.7041 0.0257066 11.833C-0.0083619 11.962 -0.00237062 12.0982 0.042884 12.2237L0.0613411 12.277C0.432532 13.3085 0.980091 14.2622 1.69376 15.1009L1.73068 15.144C1.81692 15.2454 1.93187 15.3183 2.06036 15.3531C2.18886 15.3879 2.32488 15.3829 2.4505 15.3388L4.12804 14.742C4.73917 15.2445 5.42003 15.6423 6.15626 15.9171L6.48029 17.6665C6.50458 17.7976 6.5682 17.9183 6.66271 18.0124C6.75722 18.1066 6.87813 18.1697 7.00939 18.1935L7.06476 18.2038C8.14166 18.3976 9.2445 18.3976 10.3214 18.2038L10.3768 18.1935C10.508 18.1697 10.6289 18.1066 10.7234 18.0124C10.818 17.9183 10.8816 17.7976 10.9059 17.6665L11.2278 15.9253C11.9702 15.6464 12.6552 15.2506 13.2704 14.7461L14.9357 15.3388C15.0612 15.3832 15.1974 15.3884 15.3259 15.3536C15.4545 15.3188 15.5694 15.2457 15.6555 15.144L15.6924 15.1009C16.4061 14.2581 16.9536 13.3085 17.3248 12.277L17.3433 12.2237C17.4315 11.9694 17.3556 11.6843 17.1485 11.5059ZM8.69308 12.5764C6.70177 12.5764 5.08781 10.9625 5.08781 8.97114C5.08781 6.97984 6.70177 5.36587 8.69308 5.36587C10.6844 5.36587 12.2984 6.97984 12.2984 8.97114C12.2984 10.9625 10.6844 12.5764 8.69308 12.5764Z" />
        </symbol>
        <symbol id="icon-add" viewBox="0 0 15.955 15.955">
            <path fill="currentColor" d="M23.926,15.949H17.935V9.958a.993.993,0,1,0-1.987,0v5.991H9.958a.993.993,0,0,0,0,1.987h5.991v5.991a.993.993,0,1,0,1.987,0V17.935h5.991a.993.993,0,1,0,0-1.987Z" transform="translate(-8.965 -8.965)" />
        </symbol>
        <symbol id="icon-filter" viewBox="0 0 24 16">
            <path d="M13.833,25h5.333V22.333H13.833ZM4.5,9v2.667h24V9Zm4,9.333h16V15.667H8.5Z" transform="translate(-4.5 -9)" />
        </symbol>
        <symbol id="icon-edit" viewBox="0 0 15.002 16">
              <path fill="currentColor" d="M4.5,17.163V20.5H7.625l9.217-9.83L13.717,7.334ZM19.258,8.089a.927.927,0,0,0,0-1.253l-1.95-2.08a.794.794,0,0,0-1.175,0L14.608,6.383l3.125,3.333,1.525-1.626Z" transform="translate(-4.5 -4.496)" />
        </symbol>
        <symbol id="icon-trash" viewBox="0 0 14 16">
            <path fill="currentColor" d="M13.5,1H9.75L9.456.416A.75.75,0,0,0,8.784,0H5.212a.741.741,0,0,0-.669.416L4.25,1H.5a.5.5,0,0,0-.5.5v1A.5.5,0,0,0,.5,3h13a.5.5,0,0,0,.5-.5v-1A.5.5,0,0,0,13.5,1ZM1.662,14.594A1.5,1.5,0,0,0,3.159,16h7.681a1.5,1.5,0,0,0,1.5-1.406L13,4H1Z" transform="translate(0 0)" />
        </symbol>
        <symbol id="icon-download" viewBox="0 0 13.333 16">
            <path fill="currentColor" d="M20.083,10.146H16.275V4.5H10.558v5.646H6.75l6.667,6.588ZM6.75,18.617V20.5H20.083V18.617Z" transform="translate(-6.75 -4.5)" />
        </symbol>
        <symbol id="icon-chevron" viewBox="0 0 12 8">
            <path fill="currentColor" d="M6.53123 0.990675L10.7812 5.24068C11.075 5.53443 11.075 6.00943 10.7812 6.30005L10.075 7.0063C9.78123 7.30005 9.30622 7.30005 9.0156 7.0063L5.99998 3.99693L2.98748 7.00943C2.69373 7.30317 2.21873 7.30317 1.9281 7.00943L1.21873 6.30318C0.924976 6.00943 0.924976 5.53443 1.21873 5.2438L5.46873 0.9938C5.76248 0.696925 6.23748 0.696925 6.53123 0.990675Z" />
        </symbol>
    </defs>
</svg>