<svg style="position: absolute; width: 0; height: 0; overflow: hidden;" version="1.1" xmlns="http://www.w3.org/2000/svg" xmlns:xlink="http://www.w3.org/1999/xlink">
    <defs>
        <symbol id="icon-user-plus" viewBox="0 0 19.961 15.969">
            <path d="M19.462,6.487h-2v-2a.5.5,0,0,0-.5-.5h-1a.5.5,0,0,0-.5.5v2h-2a.5.5,0,0,0-.5.5v1a.5.5,0,0,0,.5.5h2v2a.5.5,0,0,0,.5.5h1a.5.5,0,0,0,.5-.5v-2h2a.5.5,0,0,0,.5-.5v-1A.5.5,0,0,0,19.462,6.487ZM6.986,7.984A3.992,3.992,0,1,0,2.994,3.992,3.992,3.992,0,0,0,6.986,7.984Zm2.795,1H9.26a5.429,5.429,0,0,1-4.547,0H4.192A4.193,4.193,0,0,0,0,13.174v1.3a1.5,1.5,0,0,0,1.5,1.5H12.476a1.5,1.5,0,0,0,1.5-1.5v-1.3A4.193,4.193,0,0,0,9.781,8.982Z"/>
        </symbol>
        <symbol id="icon-eye" viewBox="0 0 23.667 15.954">
            <path d="M14.083,7.383A12.725,12.725,0,0,0,2.25,15.36a12.766,12.766,0,0,0,23.667,0A12.725,12.725,0,0,0,14.083,7.383Zm0,13.3a5.32,5.32,0,1,1,5.378-5.32A5.364,5.364,0,0,1,14.083,20.679Zm0-8.511a3.191,3.191,0,1,0,3.228,3.191A3.22,3.22,0,0,0,14.083,12.169Z" transform="translate(-2.25 -7.383)"/>
        </symbol>
        <symbol id="icon-eye-slash" viewBox="0 0 18.593 15.933">
            <path d="M11.548,7.853a4.215,4.215,0,0,1,4.228,4.195,4.035,4.035,0,0,1-.3,1.535l2.469,2.448a9.919,9.919,0,0,0,2.9-3.983A10.013,10.013,0,0,0,8.175,6.342L10,8.155A4.181,4.181,0,0,1,11.548,7.853ZM3.1,5.566,5.026,7.479l.39.386A9.872,9.872,0,0,0,2.25,12.048a10.028,10.028,0,0,0,13,5.585l.357.353,2.477,2.448,1.075-1.066L4.167,4.5ZM7.769,10.2,9.08,11.5a2.377,2.377,0,0,0-.066.544,2.523,2.523,0,0,0,2.535,2.514,2.385,2.385,0,0,0,.548-.066l1.311,1.3A4.206,4.206,0,0,1,7.32,12.039,4.145,4.145,0,0,1,7.769,10.2Zm3.643-.651,2.664,2.643.017-.133a2.523,2.523,0,0,0-2.535-2.514Z" transform="translate(-2.25 -4.5)"/>
        </symbol>
        <symbol id="icon-arrow-left" viewBox="0 0 16.47 16.053">
            <path fill="currentColor" d="M9.464,17.625l-.816.816a.879.879,0,0,1-1.246,0L.256,11.3a.879.879,0,0,1,0-1.246L7.4,2.906a.879.879,0,0,1,1.246,0l.816.816a.883.883,0,0,1-.015,1.261L5.02,9.2H15.585a.88.88,0,0,1,.882.882v1.176a.88.88,0,0,1-.882.882H5.02l4.43,4.22A.877.877,0,0,1,9.464,17.625Z" transform="translate(0.004 -2.647)" />
        </symbol>
        <symbol id="icon-unlock" viewBox="0 0 14 16">
            <path d="M12.5,8H4.75V4.778a2.25,2.25,0,1,1,4.5-.028v.5A.748.748,0,0,0,10,6h1a.748.748,0,0,0,.75-.75v-.5a4.75,4.75,0,1,0-9.5.047V8H1.5A1.5,1.5,0,0,0,0,9.5v5A1.5,1.5,0,0,0,1.5,16h11A1.5,1.5,0,0,0,14,14.5v-5A1.5,1.5,0,0,0,12.5,8Z" transform="translate(0 0)" />
        </symbol>
        <symbol id="icon-send" viewBox="0 0 16 15.998">
            <path d="M20,4.539,4.7,11.206a.351.351,0,0,0,.013.638l4.138,2.338a.667.667,0,0,0,.763-.075l8.159-7.034c.054-.046.183-.133.233-.083s-.029.179-.075.233l-7.059,7.951a.665.665,0,0,0-.067.8l2.7,4.338a.352.352,0,0,0,.633-.008L20.469,5A.351.351,0,0,0,20,4.539Z" transform="translate(-4.503 -4.503)" />
        </symbol>
        <symbol id="icon-check" viewBox="0 0 8.258 6.158">
            <path d="M2.8,10.614.121,7.931a.413.413,0,0,1,0-.584L.7,6.763a.413.413,0,0,1,.584,0L3.1,8.571,6.969,4.7a.413.413,0,0,1,.584,0l.584.584a.413.413,0,0,1,0,.584L3.389,10.614A.413.413,0,0,1,2.8,10.614Z" transform="translate(0 -4.577)" />
        </symbol>
        <symbol id="icon-exclamation" viewBox="0 0 1.916 6.13">
            <path d="M3.041,5.172a.958.958,0,1,1-.958-.958A.959.959,0,0,1,3.041,5.172ZM1.236.3,1.4,3.558a.287.287,0,0,0,.287.273H2.48a.287.287,0,0,0,.287-.273L2.93.3A.287.287,0,0,0,2.643,0H1.523A.287.287,0,0,0,1.236.3Z" transform="translate(-1.125)"/>
        </symbol>
        <symbol id="icon-info" viewBox="0 0 2.334 6.225">
            <path d="M.243,5.158H.486V3.4H.243A.243.243,0,0,1,0,3.158V2.578a.243.243,0,0,1,.243-.243H1.6a.243.243,0,0,1,.243.243v2.58h.243a.243.243,0,0,1,.243.243v.581a.243.243,0,0,1-.243.243H.243A.243.243,0,0,1,0,5.982V5.4A.243.243,0,0,1,.243,5.158ZM1.167,0a.875.875,0,1,0,.875.875A.875.875,0,0,0,1.167,0Z"/>
        </symbol>
        <symbol id="icon-close" viewBox="0 0 6 6">
              <path d="M15,14.289l2.143-2.144a.5.5,0,0,0-.71-.71l-2.143,2.144-2.143-2.144a.5.5,0,1,0-.71.71l2.143,2.144-2.143,2.144a.5.5,0,0,0,.71.71L14.286,15l2.143,2.144a.5.5,0,0,0,.71-.71Z" transform="translate(-11.285 -11.289)"/>
        </symbol>
        <symbol id="icon-dashboard" viewBox="0 0 27 27">
            <path d="M4.5,19.5h12V4.5H4.5Zm0,12h12v-9H4.5Zm15,0h12v-15h-12Zm0-27v9h12v-9Z" transform="translate(-4.5 -4.5)"/>
        </symbol>
        <symbol id="icon-users" viewBox="0 0 45 31.5">
            <path d="M6.75,15.75a4.5,4.5,0,1,0-4.5-4.5A4.5,4.5,0,0,0,6.75,15.75Zm31.5,0a4.5,4.5,0,1,0-4.5-4.5A4.5,4.5,0,0,0,38.25,15.75ZM40.5,18H36a4.487,4.487,0,0,0-3.171,1.308A10.285,10.285,0,0,1,38.109,27H42.75A2.248,2.248,0,0,0,45,24.75V22.5A4.5,4.5,0,0,0,40.5,18Zm-18,0a7.875,7.875,0,1,0-7.875-7.875A7.871,7.871,0,0,0,22.5,18Zm5.4,2.25h-.584a10.873,10.873,0,0,1-9.633,0H17.1A8.1,8.1,0,0,0,9,28.35v2.025a3.376,3.376,0,0,0,3.375,3.375h20.25A3.376,3.376,0,0,0,36,30.375V28.35A8.1,8.1,0,0,0,27.9,20.25Zm-15.729-.942A4.487,4.487,0,0,0,9,18H4.5A4.5,4.5,0,0,0,0,22.5v2.25A2.248,2.248,0,0,0,2.25,27H6.884A10.311,10.311,0,0,1,12.171,19.308Z" transform="translate(0 -2.25)"/>
        </symbol>
        <symbol id="icon-invoice" viewBox="0 0 27 36">
            <path d="M20.25,18H6.75v4.5h13.5ZM26.508,7.383,19.624.492A1.686,1.686,0,0,0,18.429,0H18V9h9V8.571A1.682,1.682,0,0,0,26.508,7.383ZM15.75,9.563V0H1.688A1.683,1.683,0,0,0,0,1.688V34.313A1.683,1.683,0,0,0,1.688,36H25.313A1.683,1.683,0,0,0,27,34.313V11.25H17.438A1.692,1.692,0,0,1,15.75,9.563ZM4.5,5.063A.562.562,0,0,1,5.063,4.5h5.625a.562.562,0,0,1,.563.563V6.188a.562.562,0,0,1-.562.563H5.063A.562.562,0,0,1,4.5,6.188Zm0,4.5A.562.562,0,0,1,5.063,9h5.625a.562.562,0,0,1,.563.563v1.125a.562.562,0,0,1-.562.563H5.063a.562.562,0,0,1-.562-.562Zm18,21.375a.562.562,0,0,1-.562.563H16.313a.562.562,0,0,1-.562-.562V29.813a.562.562,0,0,1,.563-.562h5.625a.562.562,0,0,1,.563.563Zm0-14.062v6.75a1.125,1.125,0,0,1-1.125,1.125H5.625A1.125,1.125,0,0,1,4.5,23.625v-6.75A1.125,1.125,0,0,1,5.625,15.75h15.75A1.125,1.125,0,0,1,22.5,16.875Z"/>
        </symbol>
        <symbol id="icon-github" viewBox="0 0 16.337 15.928">
            <path d="M5.464,13.388c0,.066-.076.119-.171.119s-.184-.043-.184-.119.076-.119.171-.119S5.464,13.312,5.464,13.388ZM4.44,13.24c-.023.066.043.142.142.161a.154.154,0,0,0,.2-.066c.02-.066-.043-.142-.142-.171A.169.169,0,0,0,4.44,13.24ZM5.9,13.184c-.1.023-.161.086-.152.161s.1.109.194.086.161-.086.152-.152S5.991,13.174,5.9,13.184ZM8.063.563A7.9,7.9,0,0,0,0,8.6a8.258,8.258,0,0,0,5.583,7.878c.422.076.57-.184.57-.4s-.01-1.331-.01-2.022c0,0-2.306.494-2.79-.982,0,0-.375-.958-.916-1.205,0,0-.754-.517.053-.507a1.739,1.739,0,0,1,1.271.85,1.741,1.741,0,0,0,2.4.688,1.831,1.831,0,0,1,.527-1.11c-1.841-.2-3.7-.471-3.7-3.639a2.5,2.5,0,0,1,.777-1.94,3.112,3.112,0,0,1,.086-2.236c.688-.214,2.273.889,2.273.889a7.781,7.781,0,0,1,4.137,0s1.584-1.107,2.273-.889a3.11,3.11,0,0,1,.086,2.236,2.56,2.56,0,0,1,.85,1.94c0,3.178-1.94,3.432-3.781,3.639a1.948,1.948,0,0,1,.56,1.528c0,1.11-.01,2.483-.01,2.753,0,.214.152.474.57.4A8.181,8.181,0,0,0,16.337,8.6,8.076,8.076,0,0,0,8.063.563ZM3.2,11.922c-.043.033-.033.109.023.171s.128.076.171.033.033-.109-.023-.171S3.244,11.88,3.2,11.922Zm-.356-.267c-.023.043.01.1.076.128a.1.1,0,0,0,.142-.023c.023-.043-.01-.1-.076-.128S2.869,11.623,2.846,11.656Zm1.067,1.173c-.053.043-.033.142.043.2s.171.086.214.033.023-.142-.043-.2S3.956,12.775,3.913,12.828Zm-.375-.484c-.053.033-.053.119,0,.194s.142.109.184.076a.15.15,0,0,0,0-.2C3.676,12.334,3.59,12.3,3.537,12.344Z" transform="translate(0 -0.563)" />
        </symbol>
        <symbol id="icon-logout" viewBox="0 0 16.267 16.267">
            <g id="icon-logout" transform="translate(-3.5 -3.5)">
                <path id="Path_3" data-name="Path 3" d="M9.256,18.767H6.085A1.585,1.585,0,0,1,4.5,17.182V6.085A1.585,1.585,0,0,1,6.085,4.5H9.256" fill="none" stroke="#ff4d35" stroke-linecap="round" stroke-linejoin="round" stroke-width="2"/>
                <path id="Path_4" data-name="Path 4" d="M24,18.426l3.963-3.963L24,10.5" transform="translate(-9.196 -2.829)" fill="none" stroke="#ff4d35" stroke-linecap="round" stroke-linejoin="round" stroke-width="2"/>
                <path id="Path_5" data-name="Path 5" d="M23.012,18H13.5" transform="translate(-4.244 -6.366)" fill="none" stroke="#ff4d35" stroke-linecap="round" stroke-linejoin="round" stroke-width="2"/>
            </g>
        </symbol>
        <symbol id="icon-bell" viewBox="0 0 14 16">
            <path d="M7,16a2,2,0,0,0,2-2H5A2,2,0,0,0,7,16Zm6.731-4.678C13.127,10.673,12,9.7,12,6.5A4.935,4.935,0,0,0,8,1.651V1A1,1,0,1,0,6,1v.651A4.935,4.935,0,0,0,2,6.5C2,9.7.873,10.673.269,11.322A.976.976,0,0,0,0,12a1,1,0,0,0,1,1H13a1,1,0,0,0,1-1,.976.976,0,0,0-.269-.678Z" />
        </symbol>
        <symbol id="icon-settings" viewBox="0 0 15.996 16">
            <path d="M19.175,12.5a2.058,2.058,0,0,1,1.32-1.92A8.159,8.159,0,0,0,19.509,8.2a2.086,2.086,0,0,1-.837.179,2.054,2.054,0,0,1-1.879-2.891A8.134,8.134,0,0,0,14.418,4.5a2.057,2.057,0,0,1-3.841,0A8.159,8.159,0,0,0,8.2,5.487,2.054,2.054,0,0,1,6.32,8.378,2.018,2.018,0,0,1,5.483,8.2,8.339,8.339,0,0,0,4.5,10.582a2.058,2.058,0,0,1,0,3.841A8.159,8.159,0,0,0,5.491,16.8,2.055,2.055,0,0,1,8.2,19.513a8.206,8.206,0,0,0,2.379.987,2.053,2.053,0,0,1,3.832,0,8.159,8.159,0,0,0,2.379-.987A2.057,2.057,0,0,1,19.5,16.8a8.207,8.207,0,0,0,.987-2.379A2.068,2.068,0,0,1,19.175,12.5Zm-6.64,3.328a3.332,3.332,0,1,1,3.332-3.332A3.332,3.332,0,0,1,12.535,15.826Z" transform="translate(-4.5 -4.5)" />
        </symbol>
        <symbol id="icon-add" viewBox="0 0 15.955 15.955">
            <path fill="currentColor" d="M23.926,15.949H17.935V9.958a.993.993,0,1,0-1.987,0v5.991H9.958a.993.993,0,0,0,0,1.987h5.991v5.991a.993.993,0,1,0,1.987,0V17.935h5.991a.993.993,0,1,0,0-1.987Z" transform="translate(-8.965 -8.965)" />
        </symbol>
        <symbol id="icon-filter" viewBox="0 0 24 16">
            <path d="M13.833,25h5.333V22.333H13.833ZM4.5,9v2.667h24V9Zm4,9.333h16V15.667H8.5Z" transform="translate(-4.5 -9)" />
        </symbol>
        <symbol id="icon-edit" viewBox="0 0 15.002 16">
              <path fill="currentColor" d="M4.5,17.163V20.5H7.625l9.217-9.83L13.717,7.334ZM19.258,8.089a.927.927,0,0,0,0-1.253l-1.95-2.08a.794.794,0,0,0-1.175,0L14.608,6.383l3.125,3.333,1.525-1.626Z" transform="translate(-4.5 -4.496)" />
        </symbol>
        <symbol id="icon-trash" viewBox="0 0 14 16">
            <path fill="currentColor" d="M13.5,1H9.75L9.456.416A.75.75,0,0,0,8.784,0H5.212a.741.741,0,0,0-.669.416L4.25,1H.5a.5.5,0,0,0-.5.5v1A.5.5,0,0,0,.5,3h13a.5.5,0,0,0,.5-.5v-1A.5.5,0,0,0,13.5,1ZM1.662,14.594A1.5,1.5,0,0,0,3.159,16h7.681a1.5,1.5,0,0,0,1.5-1.406L13,4H1Z" transform="translate(0 0)" />
        </symbol>
        <symbol id="icon-download" viewBox="0 0 13.333 16">
            <path fill="currentColor" d="M20.083,10.146H16.275V4.5H10.558v5.646H6.75l6.667,6.588ZM6.75,18.617V20.5H20.083V18.617Z" transform="translate(-6.75 -4.5)" />
        </symbol>
    </defs>
</svg>